<svg id="Layer_1" data-name="Layer 1" xmlns="http://www.w3.org/2000/svg" width="1319.0957" height="1339.52778" viewBox="0 0 1319.0957 1339.52778"><defs><style>.cls-1{fill:#820318;}.cls-2{fill:#ed0a1b;}.cls-3{fill:#aa0217;}.cls-4,.cls-5{fill:#fff;}.cls-5{opacity:0.4;}</style></defs><title>Red_Badge_svg</title><polygon class="cls-1" points="659.548 0 757.135 116.718 888.623 40.441 940.388 183.428 1090.092 156.702 1089.704 308.797 1239.514 334.891 1187.292 477.737 1319.096 553.45 1221.157 669.746 1319.096 786.077 1187.292 861.826 1239.514 1004.671 1089.704 1030.695 1090.092 1182.826 940.388 1156.099 888.623 1299.085 757.135 1222.775 659.548 1339.528 562.031 1222.775 430.509 1299.085 378.778 1156.099 229.075 1182.826 229.391 1030.695 79.582 1004.671 131.875 861.826 0 786.077 97.974 669.746 0 553.45 131.875 477.737 79.582 334.891 229.391 308.797 229.075 156.702 378.778 183.428 430.509 40.441 562.031 116.718 659.548 0"/><polygon class="cls-2" points="659.548 27.957 753.056 139.822 879.058 66.711 928.677 203.72 1072.121 178.119 1071.735 323.883 1215.319 348.887 1165.242 485.755 1291.561 558.303 1197.701 669.746 1291.561 781.224 1165.242 853.808 1215.319 990.675 1071.735 1015.643 1072.121 1161.41 928.677 1135.808 879.058 1272.817 753.056 1199.67 659.548 1311.57 566.111 1199.67 440.074 1272.817 390.489 1135.808 247.045 1161.41 247.362 1015.643 103.811 990.675 153.889 853.808 27.536 781.224 121.431 669.746 27.536 558.303 153.889 485.755 103.811 348.887 247.362 323.883 247.045 178.119 390.489 203.72 440.074 66.711 566.111 139.822 659.548 27.957"/><polygon class="cls-3" points="97.974 587.105 46.913 526.513 0 553.45 63.16 628.425 97.974 587.105"/><polygon class="cls-3" points="131.875 395.096 108.031 329.932 79.582 334.891 106.871 409.444 131.875 395.096"/><polygon class="cls-3" points="229.391 226.156 229.251 156.737 229.075 156.702 229.216 226.191 229.391 226.156"/><polygon class="cls-3" points="1211.1 329.932 1187.292 395.096 1212.26 409.444 1239.514 334.891 1211.1 329.932"/><polygon class="cls-3" points="1089.916 226.191 1090.092 156.702 1089.88 156.737 1089.704 226.156 1089.916 226.191"/><polygon class="cls-3" points="940.388 1073.457 888.623 1216.445 757.135 1140.132 659.548 1256.885 562.031 1140.132 430.509 1216.445 378.778 1073.457 229.251 1100.149 229.075 1182.826 378.778 1156.099 430.509 1299.085 562.031 1222.775 659.548 1339.528 757.135 1222.775 888.623 1299.085 940.388 1156.099 1090.092 1182.826 1089.88 1100.149 940.388 1073.457"/><polygon class="cls-3" points="1187.292 779.184 1212.26 847.477 1319.096 786.077 1272.219 730.372 1187.292 779.184"/><polygon class="cls-3" points="1221.157 587.105 1255.936 628.425 1319.096 553.45 1272.184 526.513 1221.157 587.105"/><polygon class="cls-3" points="131.875 779.184 46.913 730.372 0 786.077 106.871 847.477 131.875 779.184"/><polygon class="cls-3" points="1089.704 948.054 1089.916 1030.66 1239.514 1004.671 1211.1 926.955 1089.704 948.054"/><polygon class="cls-3" points="229.391 948.054 108.031 926.989 79.582 1004.671 229.216 1030.66 229.391 948.054"/><path class="cls-4" d="M1147.44819,669.7461l85.0674-101.0337-114.50188-65.7613,45.36518-124.102-130.1514-22.6826,0.3516-132.1206-130.0459,23.2099-44.9776-124.208-114.2207,66.2534L659.5478,87.91651,574.832,189.30121l-114.2558-66.2534-44.9434,124.208-130.04493-23.2099,0.28125,132.1206-130.15092,22.6826,45.4341,124.102L86.58051,568.7124l85.1026,101.0337L86.58051,770.8149l114.5718,65.7959-45.4341,124.1026,130.15092,22.6123-0.28125,132.1552,130.04493-23.2099,44.9434,124.208,114.2558-66.2881,84.7158,101.4199,84.7871-101.4199,114.2207,66.2881,44.9776-124.208,130.0459,23.2099-0.3516-132.1552,130.1514-22.6123-45.36518-124.1026,114.50188-65.7959Zm-18.8486,270.8872L1007.415,961.6635l0.3164,123.0118-121.0429-21.5918-41.8487,115.6279-106.3779-61.6826-78.9141,94.4219-78.8427-94.4219-106.4146,61.6826L432.478,1063.0835l-121.0434,21.5918,0.246-123.0118-121.1831-21.0302,42.3404-115.5576L126.14261,763.851l79.2295-94.1049-79.2295-94.0703,106.6953-61.19-42.3404-115.5215,121.1831-21.1352-0.246-123.01271L432.478,276.44381l41.8125-115.6269L580.7051,222.4634l78.8427-94.38679,78.9141,94.38679,106.3779-61.64649,41.8487,115.6269,121.0429-21.62741-0.3164,123.01271,121.1846,21.1352-42.2715,115.5215,106.625,61.19-79.1953,94.0703,79.1953,94.1049-106.625,61.2247Z" transform="translate(-0.00001 -0.00002)"/><path class="cls-5" d="M286.15038,805.6645l-16.458,44.9785c389.6103-89.5341,643.08978-263.5737,800.03708-417.88419L963.914,414.33151l0.2813-107.6094-105.9219,18.9195-36.6426-101.1734-93.0156,53.9453-69.0674-82.5712-68.99609,82.5712-93.08591-53.9453-36.5732,101.1734L354.936,306.72211l0.2466,107.6094L249.15531,432.7944l36.99507,101.1035L192.854,587.4565l69.3125,82.2896L192.854,752.0708Z" transform="translate(-0.00001 -0.00002)"/></svg>