<svg id="Layer_1" data-name="Layer 1" xmlns="http://www.w3.org/2000/svg" viewBox="0 0 1319.1 1339.53"><defs><style>.cls-1{fill:#820318;}.cls-2{fill:#ed0a1b;}.cls-3{fill:#aa0217;}.cls-4,.cls-5{fill:#fff;}.cls-5{opacity:0.4;}</style></defs><title>Red_Badge_svg</title><polygon class="cls-1" points="659.55 0 757.13 116.72 888.62 40.44 940.39 183.43 1090.09 156.7 1089.7 308.8 1239.51 334.89 1187.29 477.74 1319.1 553.45 1221.16 669.75 1319.1 786.08 1187.29 861.83 1239.51 1004.67 1089.7 1030.69 1090.09 1182.83 940.39 1156.1 888.62 1299.09 757.13 1222.78 659.55 1339.53 562.03 1222.78 430.51 1299.09 378.78 1156.1 229.07 1182.83 229.39 1030.69 79.58 1004.67 131.88 861.83 0 786.08 97.97 669.75 0 553.45 131.88 477.74 79.58 334.89 229.39 308.8 229.07 156.7 378.78 183.43 430.51 40.44 562.03 116.72 659.55 0"/><polygon class="cls-2" points="659.55 27.96 753.06 139.82 879.06 66.71 928.68 203.72 1072.12 178.12 1071.73 323.88 1215.32 348.89 1165.24 485.75 1291.56 558.3 1197.7 669.75 1291.56 781.22 1165.24 853.81 1215.32 990.67 1071.73 1015.64 1072.12 1161.41 928.68 1135.81 879.06 1272.82 753.06 1199.67 659.55 1311.57 566.11 1199.67 440.07 1272.82 390.49 1135.81 247.04 1161.41 247.36 1015.64 103.81 990.67 153.89 853.81 27.54 781.22 121.43 669.75 27.54 558.3 153.89 485.75 103.81 348.89 247.36 323.88 247.04 178.12 390.49 203.72 440.07 66.71 566.11 139.82 659.55 27.96"/><polygon class="cls-3" points="97.97 587.11 46.91 526.51 0 553.45 63.16 628.42 97.97 587.11"/><polygon class="cls-3" points="131.88 395.1 108.03 329.93 79.58 334.89 106.87 409.44 131.88 395.1"/><polygon class="cls-3" points="229.39 226.16 229.25 156.74 229.07 156.7 229.22 226.19 229.39 226.16"/><polygon class="cls-3" points="1211.1 329.93 1187.29 395.1 1212.26 409.44 1239.51 334.89 1211.1 329.93"/><polygon class="cls-3" points="1089.92 226.19 1090.09 156.7 1089.88 156.74 1089.7 226.16 1089.92 226.19"/><polygon class="cls-3" points="940.39 1073.46 888.62 1216.44 757.13 1140.13 659.55 1256.88 562.03 1140.13 430.51 1216.44 378.78 1073.46 229.25 1100.15 229.07 1182.83 378.78 1156.1 430.51 1299.09 562.03 1222.78 659.55 1339.53 757.13 1222.78 888.62 1299.09 940.39 1156.1 1090.09 1182.83 1089.88 1100.15 940.39 1073.46"/><polygon class="cls-3" points="1187.29 779.18 1212.26 847.48 1319.1 786.08 1272.22 730.37 1187.29 779.18"/><polygon class="cls-3" points="1221.16 587.11 1255.94 628.42 1319.1 553.45 1272.18 526.51 1221.16 587.11"/><polygon class="cls-3" points="131.88 779.18 46.91 730.37 0 786.08 106.87 847.48 131.88 779.18"/><polygon class="cls-3" points="1089.7 948.05 1089.92 1030.66 1239.51 1004.67 1211.1 926.96 1089.7 948.05"/><polygon class="cls-3" points="229.39 948.05 108.03 926.99 79.58 1004.67 229.22 1030.66 229.39 948.05"/><path class="cls-4" d="M1147.45,669.75l85.07-101L1118,503l45.37-124.1-130.15-22.68L1033.58,224l-130,23.21L858.56,123,744.33,189.3,659.55,87.92,574.83,189.3,460.58,123,415.63,247.26,285.59,224l0.28,132.12L155.72,378.85,201.15,503,86.58,568.71l85.1,101L86.58,770.81l114.57,65.8-45.43,124.1,130.15,22.61-0.28,132.16,130-23.21,44.94,124.21,114.26-66.29,84.72,101.42,84.79-101.42,114.22,66.29,45-124.21,130,23.21-0.35-132.16,130.15-22.61L1118,836.61l114.5-65.8ZM1128.6,940.63l-121.18,21,0.32,123-121-21.59-41.85,115.63L738.46,1117l-78.91,94.42L580.71,1117l-106.41,61.68-41.81-115.63-121,21.59,0.25-123-121.18-21,42.34-115.56-106.7-61.22,79.23-94.1-79.23-94.07,106.7-61.19L190.5,399l121.18-21.14-0.25-123,121,21.63,41.81-115.63,106.41,61.65,78.84-94.39,78.91,94.39,106.38-61.65,41.85,115.63,121-21.63-0.32,123L1128.6,399l-42.27,115.52L1193,575.68l-79.2,94.07,79.2,94.1-106.62,61.22Z" transform="translate(0 0)"/><path class="cls-5" d="M286.15,805.66l-16.46,45c389.61-89.53,643.09-263.57,800-417.88L963.91,414.33l0.28-107.61L858.27,325.64,821.63,224.47l-93,53.95-69.07-82.57-69,82.57-93.09-53.95L460.89,325.64l-106-18.92,0.25,107.61-106,18.46,37,101.1-93.3,53.56,69.31,82.29-69.31,82.32Z" transform="translate(0 0)"/></svg>