<svg id="Layer_1" data-name="Layer 1" xmlns="http://www.w3.org/2000/svg" width="2002.3369" height="1194.11479" viewBox="0 0 2002.3369 1194.11479"><defs><style>.cls-1{fill:#1fa3fc;}.cls-2{fill:#fff;}.cls-3{fill:#1476ed;}</style></defs><title>Cloud</title><path class="cls-1" d="M1734.293,434.5352c0.3222-6.5664,1.0469-13.0518,1.0469-19.6987,0-215.07179-174.4258-389.61919-389.69932-389.61919-113.6797,0-215.75779,49.065-286.97848,126.6909C987.4414,59.69971,876.0186,0,750.416,0c-187.0762,0-343.2129,131.7666-380.8379,307.64309C163.751,318.11671,0,487.8701,0,696.2544c0,215.2334,174.3857,389.6602,389.6387,389.6602h1.4511c69.9317,66.8301,164.5967,108.2002,269.1719,108.2002a387.70617,387.70617,0,0,0,240.08789-83.1035,387.54419,387.54419,0,0,0,443.35739-25.0567c69.9317,66.8701,164.5967,108.1602,269.01079,108.1602,215.19242,0,389.61912-174.4258,389.61912-389.6192C2002.33691,631.8824,1889.86621,485.6543,1734.293,434.5352Zm-271.50982,613.312a292.40567,292.40567,0,0,1-203.0273-81.7354c-49.9512,39.0752-112.7119,62.7217-180.9512,62.7217a292.37833,292.37833,0,0,1-153.8018-43.8281,292.95019,292.95019,0,0,1-384.38179-18.9736c-0.4033,0-.8066.08-1.1289,0.08-162.4219,0-294.1475-131.6855-294.1475-294.1474,0-157.3462,123.5889-285.4468,279.001-293.4634,28.4404-132.6123,146.3086-232.19239,287.542-232.19239,94.8272,0,178.8574,45.0366,232.67579,114.7671,53.8183-58.7329,130.9209-95.7534,216.64349-95.7534,162.502,0,294.14749,131.6455,294.14749,294.14789,0,5.0357-.4033,9.9097-0.6445,14.8243,117.38572,38.6718,202.22162,149.0478,202.22162,279.3642C1756.93161,916.1607,1625.28611,1047.8472,1462.78319,1047.8472Z" transform="translate(-0.00001 -0.00001)"/><path class="cls-2" d="M539.49221,1012.5181c0.3223,0,.7256-0.0801,1.1289-0.0801a292.95036,292.95036,0,0,0,384.38179,18.9737,292.37924,292.37924,0,0,0,153.8018,43.8281c68.2393,0,131-23.6465,180.9512-62.7217a292.40558,292.40558,0,0,0,203.0273,81.7353c162.50292,0,294.14842-131.6865,294.14842-294.1884,0-4.3907-.8056-8.5401-1.0468-12.8506-10.6348,152.7939-137.60742,273.5234-293.10162,273.5234a292.406,292.406,0,0,1-203.0273-81.7353c-49.9512,39.0752-112.7119,62.7217-180.9512,62.7217A292.37841,292.37841,0,0,1,925.0029,997.896a292.95019,292.95019,0,0,1-384.38179-18.9736c-0.4033,0-.8066.0801-1.1289,0.0801-156.8623,0-284.6807-122.9033-293.3018-277.6719-0.3222,5.6807-.8457,11.2793-0.8457,17.04C245.34471,880.8325,377.07031,1012.5181,539.49221,1012.5181Z" transform="translate(-0.00001 -0.00001)"/><path class="cls-2" d="M1735.33991,461.2427c0,6.647-.7247,13.1323-1.0469,19.6987,149.9336,49.2661,259.5039,186.9536,267.2783,351.3902,0.2021-4.9951.7656-9.9102,0.7656-14.9453,0-172.4922-112.3095-318.5997-267.6416-369.8399C1734.81641,452.1387,1735.33991,456.6104,1735.33991,461.2427Z" transform="translate(-0.00001 -0.00001)"/><path class="cls-2" d="M369.57811,354.0493c37.625-175.8764,193.7617-307.643,380.8379-307.643,125.6026,0,237.02539,59.6997,308.2461,151.9082,71.22069-77.626,173.29878-126.6909,286.97848-126.6909,209.47269,0,379.78912,165.40279,388.85352,372.41839,0.3624-5.3979.8458-10.7959,0.8458-16.3149,0-215.07179-174.4258-389.61919-389.69932-389.61919-113.6797,0-215.75779,49.065-286.97848,126.691C987.4414,72.5904,876.0186,12.89071,750.416,12.89071c-187.0762,0-343.2129,131.7666-380.8379,307.643C163.751,331.0074,0,500.7608,0,709.145c0,5.5596.6045,10.9981,0.8262,16.5167C9.52731,525.1724,169.43071,364.2408,369.57811,354.0493Z" transform="translate(-0.00001 -0.00001)"/><path class="cls-3" d="M1554.71,417.5757c0.2412-4.9145.6445-9.7886,0.6445-14.8242,0-162.5024-131.6455-294.148-294.14749-294.148-85.7226,0-162.8252,37.0206-216.64349,95.7535-53.81839-69.7305-137.8486-114.7671-232.67579-114.7671-141.2334,0-259.1016,99.5801-287.542,232.19239-155.4121,8.0166-279.001,136.11709-279.001,293.46329,0,9.4258.5635,18.7315,1.4502,27.9161,13.9785-143.8917,131.7666-257.1275,277.5508-264.6607,28.4404-132.6123,146.3086-232.19239,287.542-232.19239,94.8272,0,178.8574,45.0366,232.67579,114.7671,53.8183-58.7329,130.9209-95.7534,216.64349-95.7534,162.502,0,294.14749,131.6455,294.14749,294.14789,0,5.0357-.4033,9.9097-0.6445,14.8243,110.05372,36.2548,190.54,135.8349,200.28812,255.4755a294.33691,294.33691,0,0,0,1.9335-32.83C1756.93161,566.6236,1672.09571,456.2476,1554.71,417.5757Z" transform="translate(-0.00001 -0.00001)"/><path class="cls-3" d="M1612.71779,1137.396c-104.4141,0-199.0791-41.29-269.01079-108.1601a387.54439,387.54439,0,0,1-443.35739,25.0566,387.70617,387.70617,0,0,1-240.08789,83.1035c-104.5752,0-199.2402-41.3701-269.1719-108.2002h-1.4511c-205.8262,0-373.8682-159.6025-388.2285-361.7431C0.70511,676.9995,0,686.5464,0,696.2544c0,215.2334,174.3857,389.6602,389.6387,389.6602h1.4511c69.9317,66.8301,164.5967,108.2002,269.1719,108.2002a387.70617,387.70617,0,0,0,240.08789-83.1035,387.54419,387.54419,0,0,0,443.35739-25.0567c69.9317,66.8701,164.5967,108.1602,269.01079,108.1602,215.19242,0,389.61912-174.4258,389.61912-389.6192,0-10.5937-.4834-21.0673-1.289-31.4209C1987.95611,976.4243,1819.37111,1137.396,1612.71779,1137.396Z" transform="translate(-0.00001 -0.00001)"/></svg>