<svg id="Layer_1" data-name="Layer 1" xmlns="http://www.w3.org/2000/svg" width="3055" height="1846" viewBox="0 0 3055 1846"><defs><style>.cls-1{fill:#fff;}.cls-2{fill:#92c8ef;}.cls-3{fill:#d9ecf9;}.cls-4{fill:#76b2d6;}.cls-5{fill:#b3dbf4;}</style></defs><title>Lt_Blue_Cloud</title><rect class="cls-1" width="3055" height="1846"/><path class="cls-2" d="M2591.3779,696.4883a325.05928,325.05928,0,0,0-112.0752,19.7969c0.1573-4.085.2559-8.1709,0.2559-12.294,0-179.8828-145.8164-325.7041-325.7012-325.7041a324.74784,324.74784,0,0,0-234.5322,99.7227c-22.7803-157.6084-158.3906-278.7032-322.3164-278.7032-138.1416,0-256.1875,86.0137-303.5332,207.3965A326.28529,326.28529,0,0,0,1000.5,482.4902,324.796,324.796,0,0,0,761.7441,378.292c-142.4677,0-263.5556,91.4824-307.7636,218.9111-175.5069,5.0049-316.2471,148.834-316.2471,325.5547,0,179.8828,145.8193,325.7051,325.6992,325.7051a324.90046,324.90046,0,0,0,116.8369-21.6074c56.5977,96.2246,161.2071,160.8164,280.9141,160.8164a324.19636,324.19636,0,0,0,189.5625-60.8321c58.7978,84.8165,156.8223,140.379,267.8398,140.379a324.15592,324.15592,0,0,0,167.4053-46.2696c42.3389,130.7246,165.0654,225.2559,309.8916,225.2559,112.999,0,212.5371-57.5488,270.9541-144.9238a324.75433,324.75433,0,0,0,126.793,25.5957c133.208,0,247.7129-79.9629,298.1806-194.5059a325.401,325.401,0,0,0,99.5674,15.5195c179.8877,0,325.7041-145.8144,325.7041-325.6992C2917.082,842.3096,2771.2656,696.4883,2591.3779,696.4883Z"/><path class="cls-3" d="M437.5742,744.8564c44.209-127.4287,165.2959-218.9111,307.7637-218.9111A324.79571,324.79571,0,0,1,984.0938,630.1436a326.29563,326.29563,0,0,1,292.9755-75.7872C1324.415,432.9736,1442.4609,346.96,1580.6035,346.96c163.9258,0,299.5352,121.0947,322.3154,278.7031a324.74978,324.74978,0,0,1,234.5323-99.7227c179.8857,0,325.7021,145.8213,325.7021,325.7041,0,4.1231-.0986,8.209-0.2568,12.294,182.834-88.5078,340.749-49.1426,433.0879,42.7529-46.6114-122.8623-165.3946-210.2031-304.6065-210.2031a325.05928,325.05928,0,0,0-112.0752,19.7969c0.1573-4.085.2559-8.1709,0.2559-12.294,0-179.8828-145.8164-325.7041-325.7012-325.7041a324.74784,324.74784,0,0,0-234.5322,99.7227c-22.7803-157.6084-158.3906-278.7032-322.3164-278.7032-138.1416,0-256.1875,86.0137-303.5332,207.3965A326.28529,326.28529,0,0,0,1000.5,482.4902,324.796,324.796,0,0,0,761.7441,378.292c-142.4677,0-263.5556,91.4824-307.7636,218.9111C307.166,601.3877,184.7031,702.7256,148.5801,839.1904,204.9463,757.834,304.6797,713.8496,437.5742,744.8564Z"/><path class="cls-4" d="M2491.8105,1180.8691c-50.4677,114.5411-164.9726,194.5039-298.1806,194.5039a324.75253,324.75253,0,0,1-126.793-25.5957c-58.417,87.375-157.9551,144.9239-270.9541,144.9239-144.8262,0-267.5527-94.5313-309.8916-225.2559a324.15584,324.15584,0,0,1-167.4053,46.2695c-111.0175,0-209.042-55.5625-267.8398-140.3789a324.19636,324.19636,0,0,1-189.5625,60.8321c-119.707,0-209.9424-14.9102-266.541-111.1348-166.3711,88.3047-335.669,18.1465-433.6026-81.0996,48.0772,119.8691,165.3409,204.5293,302.3926,204.5293a324.90046,324.90046,0,0,0,116.8369-21.6074c56.5977,96.2246,161.2071,160.8164,280.9141,160.8164a324.19636,324.19636,0,0,0,189.5625-60.8321c58.7978,84.8165,156.8223,140.379,267.8398,140.379a324.15592,324.15592,0,0,0,167.4053-46.2696c42.3389,130.7246,165.0654,225.2559,309.8916,225.2559,112.999,0,212.5371-57.5488,270.9541-144.9238a324.75433,324.75433,0,0,0,126.793,25.5957c133.208,0,247.7129-79.9629,298.1806-194.5059a325.401,325.401,0,0,0,99.5674,15.5195c157.667,0,289.1514-112.0215,319.2315-260.8086C2830.1689,1222.1074,2644.374,1253.8184,2491.8105,1180.8691Z"/><path class="cls-5" d="M2502.7471,1009.9629c-50.4678,97.3809-164.9717,165.3613-298.1797,165.3613a374.6733,374.6733,0,0,1-126.794-21.7617c-58.416,74.2852-157.955,123.2148-270.9531,123.2148-144.8262,0-267.5527-80.3691-309.8916-191.5097-48.9238,24.9726-106.1846,39.3379-167.4053,39.3379-111.0175,0-209.042-47.2383-267.8398-119.3477-53.3975,32.5508-118.8447,51.7168-189.5635,51.7168-119.706,0-209.9414-12.6719-266.54-94.4844-120.6406,54.4414-242.8252,38.0411-338.2168-7.2617-36.1602-17.1699-55.4346,3.2031-25.6748,29.0391,59.1142,51.3164,141.5205,83.1601,232.6816,83.1601a375.91345,375.91345,0,0,0,116.836-18.3711c56.5986,81.8086,161.208,136.7247,280.914,136.7247,70.7188,0,136.166-19.1661,189.5635-51.7168,58.7978,72.1093,156.8223,119.3496,267.8398,119.3496,61.2207,0,118.4815-14.3672,167.4053-39.3379,42.3389,111.1367,165.0654,191.5078,309.8916,191.5078,112.9981,0,212.5371-48.9297,270.9531-123.2149a374.67333,374.67333,0,0,0,126.794,21.7618c133.208,0,247.7119-67.9805,298.1797-165.3633a378.47688,378.47688,0,0,0,99.5674,13.1933c98.5429,0,186.8554-37.2031,246.5781-95.9843,35.834-35.2735,9.7197-60.7754-33.5567-42.0625C2724.585,1053.1563,2606.0479,1051.9551,2502.7471,1009.9629Z"/></svg>