<svg id="Layer_1" data-name="Layer 1" xmlns="http://www.w3.org/2000/svg" width="2239.2652" height="1096.4293" viewBox="0 0 2239.2652 1096.4293"><defs><style>.cls-1{fill:#fff;}.cls-2{fill:#d8d8d8;}.cls-3{fill:none;stroke:#000;stroke-linecap:round;stroke-miterlimit:10;stroke-width:11.0328px;}</style></defs><title>White_Clouds</title><path class="cls-1" d="M2233.74881,673.6609c0-118.6494-138.6348-214.834-309.6524-214.834a439.92479,439.92479,0,0,0-81.4355,7.523,204.61734,204.61734,0,0,0-154.06642-125.69051c-39.8037-191.35488-209.37209-335.143-412.53419-335.143-133.3291,0-252.16309,61.93162-329.38089,158.58052A356.72583,356.72583,0,0,0,816.365,139.59251c-180.5557,0-329.8233,133.8516-354.0664,307.72459q-14.30715-1.23915-29.0127-1.26071c-82.0303,0-155.6455,29.708-205.9453,76.79691a224.33742,224.33742,0,0,0-36.666-3.001c-102.2588,0-185.1582,68.4336-185.1582,152.8516,0,84.4218,82.8994,152.86909,185.1582,152.86909a225.105,225.105,0,0,0,36.666-3c50.2998,47.0811,123.915,76.7969,205.9453,76.7969a332.31812,332.31812,0,0,0,55.9736-4.7256c56.8589,113.1807,244.64064,196.2686,467.56689,196.2686,132.0684,0,251.78659-29.1788,339.28179-76.4776,72.9414,31.876,164.5595,50.8643,264.06439,50.8643,199.51562,0,367.34472-76.3037,416.41892-179.90335C2122.60421,868.10329,2233.74881,779.89819,2233.74881,673.6609Z" transform="translate(-0.00001 0.00001)"/><path class="cls-2" d="M1976.59151,786.61009c-49.0742,103.584-216.9033,179.8887-416.41892,179.8887-99.5049,0-191.123-18.9893-264.06439-50.8652-87.4952,47.3134-207.21339,76.4785-339.28179,76.4785-222.92625,0-410.708-83.0879-467.56689-196.2686a330.8985,330.8985,0,0,1-55.9736,4.7256c-82.0303,0-155.6455-29.7158-205.9453-76.7978-12.4658,10.6259-30.7012,21.8017-49.6758,25.5126-79.8047,15.6407-182.3389-6.6972-162.2627-125.9765a128.81123,128.81123,0,0,0-9.8857,49.39651c0,84.4218,82.8994,152.86909,185.1582,152.86909a225.105,225.105,0,0,0,36.666-3c50.2998,47.0811,123.915,76.7969,205.9453,76.7969a332.31812,332.31812,0,0,0,55.9736-4.7256c56.8589,113.1807,244.64064,196.2686,467.56689,196.2686,132.0684,0,251.78659-29.1788,339.28179-76.4776,72.9414,31.876,164.5595,50.8643,264.06439,50.8643,199.51562,0,367.34472-76.3037,416.41892-179.90335,146.0127-17.293,257.1573-105.49805,257.1573-211.73534a153.26838,153.26838,0,0,0-8.2334-49.4043C2256.27421,766.78,2096.27321,808.45389,1976.59151,786.61009Z" transform="translate(-0.00001 0.00001)"/><path class="cls-3" d="M2233.74881,673.6609c0-118.6494-138.6348-214.834-309.6524-214.834a439.92479,439.92479,0,0,0-81.4355,7.523,204.61734,204.61734,0,0,0-154.06642-125.69051c-39.8037-191.35488-209.37209-335.143-412.53419-335.143-133.3291,0-252.16309,61.93162-329.38089,158.58052A356.72583,356.72583,0,0,0,816.365,139.59251c-180.5557,0-329.8233,133.8516-354.0664,307.72459q-14.30715-1.23915-29.0127-1.26071c-82.0303,0-155.6455,29.708-205.9453,76.79691a224.33742,224.33742,0,0,0-36.666-3.001c-102.2588,0-185.1582,68.4336-185.1582,152.8516,0,84.4218,82.8994,152.86909,185.1582,152.86909a225.105,225.105,0,0,0,36.666-3c50.2998,47.0811,123.915,76.7969,205.9453,76.7969a332.31812,332.31812,0,0,0,55.9736-4.7256c56.8589,113.1807,244.64064,196.2686,467.56689,196.2686,132.0684,0,251.78659-29.1788,339.28179-76.4776,72.9414,31.876,164.5595,50.8643,264.06439,50.8643,199.51562,0,367.34472-76.3037,416.41892-179.90335C2122.60421,868.10329,2233.74881,779.89819,2233.74881,673.6609Z" transform="translate(-0.00001 0.00001)"/><path class="cls-3" d="M1913.76051,869.05929s22.9902,19.39555,62.831,16.337" transform="translate(-0.00001 0.00001)"/><path class="cls-3" d="M1842.66091,466.3499s-31.1074,7.0883-48.4736,28.8603" transform="translate(-0.00001 0.00001)"/><path class="cls-3" d="M1688.59449,340.65939s6.52342,30.23-.9053,54.22761" transform="translate(-0.00001 0.00001)"/><path class="cls-3" d="M946.6794,164.09691s-16.706,22.1709-19.9599,51.8218" transform="translate(-0.00001 0.00001)"/><path class="cls-3" d="M462.29861,447.3171s23.207,3.4424,35.3252,20.3877" transform="translate(-0.00001 0.00001)"/><path class="cls-3" d="M227.34061,522.8533s21.8447,4.3486,36.8188,23.8525" transform="translate(-0.00001 0.00001)"/><path class="cls-3" d="M268.29761,808.44019a160.95314,160.95314,0,0,1-40.957,14.1328" transform="translate(-0.00001 0.00001)"/><path class="cls-3" d="M479.89571,853.65109s-2.4643,17.5391,9.3638,40.9932" transform="translate(-0.00001 0.00001)"/><path class="cls-3" d="M1324.59149,982.21169s-5.3193,18.2207-28.4833,32.2236" transform="translate(-0.00001 0.00001)"/></svg>