<svg id="Layer_1" data-name="Layer 1" xmlns="http://www.w3.org/2000/svg" width="322.41376" height="384.51613" viewBox="0 0 322.41376 384.51613"><defs><style>.cls-1{fill:#333;}.cls-1,.cls-2,.cls-3,.cls-4{fill-rule:evenodd;}.cls-2{fill:#9a9a9a;}.cls-3{fill:#fff;}.cls-4{fill:#656565;}</style></defs><title>Striped_Heart</title><path class="cls-1" d="M177.85695,87.93971s-9.21555-51.98146-52.36389-73.44136C52.07305-22.01846-9.61363,47.60326,20.8457,126.92226,51.566,206.92648,97.19114,295.39794,137.81383,365.54081c14.736,25.44585,32.66011,36.19036,51.97515,1.26086,29.64714-58.78568,69.128-113.881,101.01066-171.69288,8.54057-15.48988,25.20851-43.709,36.19273-72.23011C377.25956-7.653,183.17952-34.34548,177.85695,87.93971Z" transform="translate(-12.88517 -4.51613)"/><path class="cls-2" d="M178.99006,96.22637s-18.25683-48.34081-52.42146-70.63491C63.49727-15.56506-.6307,56.59171,28.33357,130.16942c29.56513,75.10115,71.90366,158.675,110.16391,224.73412,13.87812,23.96578,30.759,34.08735,48.95114,1.1891,27.92184-55.36589,65.10653-107.25581,95.13217-161.70537,8.04695-14.58944,23.8136-41.13681,34.08893-68.02646C364.69355,0.68023,196.50094-13.37926,178.99006,96.22637Z" transform="translate(-12.88517 -4.51613)"/><path class="cls-2" d="M21.81322,82.37427c46.69358,0.59061,105.857.06308,150.371-1.10631-5.60172-11.03311-14.61382-26.35109-26.82263-39.52505L34.61185,45.751A87.28424,87.28424,0,0,0,21.81322,82.37427h0Zm160.823-1.39885c10.836-.32882,20.54987-0.69548,28.67488-1.09527,38.55753-1.89563,80.24867-5.07182,113.11932-6.35476C322.00334,57.10584,314.234,44.57925,303.4445,36.02765l-91.98515,3.326C198.84761,49.04075,188.4674,62.8968,182.63623,80.97542Z" transform="translate(-12.88517 -4.51613)"/><path class="cls-3" d="M21.57193,101.90773c65.45743,0.53462,138.5912-.54961,182.51073-2.767,44.23021-2.23942,83.15677-5.42035,120.802-6.51562,1.11262-12.66221-.44079-23.65037-4.03491-32.92427L189.65256,64.71672a95.3217,95.3217,0,0,0-10.66013,31.51359,194.39973,194.39973,0,0,0-15.56321-30.51058L23.8563,71.05959A93.34544,93.34544,0,0,0,21.57193,101.90773Z" transform="translate(-12.88517 -4.51613)"/><path class="cls-1" d="M27.08139,60.8001c51.74253-1.40358,96.03582-1.924,131.578-2.3491-8.28429-11.98716-19.0217-24.32765-32.09316-32.85481A76.71934,76.71934,0,0,0,107.8907,16.6101L66.22243,18.251c-17.45726,7.33569-31.61295,22.83654-39.141,42.54906h0Zm166.75275-2.8048c27.15775-.42265,46.25358-1.011,56.22927-2.39877,10.44486-1.45089,35.90176-2.979,66.723-4.2714C292.99885,10.94373,225.20974,12.27871,193.83414,57.9953Z" transform="translate(-12.88517 -4.51613)"/><path class="cls-2" d="M52.93807,25.83984h0.00237c14.0169,0.54724,42.99222.05125,72.93269-.67577C99.35724,8.20832,72.7136,11.19921,52.93807,25.83984Z" transform="translate(-12.88517 -4.51613)"/><path class="cls-2" d="M37.87557,153.65736c62.07385-5.30838,100.47682-11.59855,139.31113-10.832,21.39991,0.42265,74.13047-.06472,133.133-1.27821,2.2552-4.9977,4.40078-10.08293,6.3524-15.18156a138.72876,138.72876,0,0,0,6.65913-22.80349c-94.55575,4.124-206.13744,8.99-299.31642,13.03512a105.29941,105.29941,0,0,0,4.314,13.5683Q32.90862,141.7888,37.87557,153.65736Z" transform="translate(-12.88517 -4.51613)"/><path class="cls-3" d="M55.08445,193.08621c17.00937,0.10724,33.23732.40688,47.93393,0.96122,49.58512,1.87512,117.97351,1.06366,180.13016-.68366,8.19913-14.78414,23.48084-40.73466,33.52355-66.99822l0.0205-.06072C229.575,129.93911,127.64574,134.31866,31.744,138.73049,38.92589,156.54732,46.77807,174.77734,55.08445,193.08621Z" transform="translate(-12.88517 -4.51613)"/><path class="cls-4" d="M26.6816,125.64563c21.45116-1.227,39.67487-2.327,51.40977-3.14939,53.2983-3.72344,190.08771-2.14322,241.41942-4.29591,4.29828-13.43109,6.02358-25.47661,5.67978-36.12333-44.83344,2.34029-94.06371,4.743-144.75435,6.91619-0.54487,2.35527-1.04559,4.754-1.4438,7.23713,0,0-1.01011-2.67312-2.9972-7.04946-51.2087,2.17713-103.80915,4.11928-154.80337,5.5339A99.84438,99.84438,0,0,0,26.6816,125.64563Z" transform="translate(-12.88517 -4.51613)"/><path class="cls-1" d="M37.34331,152.38782c23.12994-.9415,45.2829-2.148,64.73356-3.69268,57.09192-4.5372,139.3474-6.53382,208.21837-7.092-9.598,21.2564-21.13417,40.85924-27.6561,52.67694L57.7552,198.94656C50.59377,183.32736,43.747,167.74122,37.34331,152.38782Z" transform="translate(-12.88517 -4.51613)"/><path class="cls-2" d="M100.5077,285.89221c46.34978-.291,92.81074-1.28373,120.63874-2.64946l8.17863-.41562c8.49562-13.7929,17.1174-27.533,25.57754-41.32684L81.0799,247.78573C87.46542,260.6632,93.96763,273.4019,100.5077,285.89221Z" transform="translate(-12.88517 -4.51613)"/><path class="cls-3" d="M110.74755,305.17019c39.61416-.40688,76.70108-1.33183,103.16808-2.666l3.53813-.18373c7.18587-11.97382,14.5602-23.87431,21.94715-35.76771L93.37545,272.13868C99.13093,283.339,104.94,294.38152,110.74755,305.17019Z" transform="translate(-12.88517 -4.51613)"/><path class="cls-1" d="M88.6971,262.97438c72.60151-1.37677,125.77286-1.272,154.59125-2.68021,9.56171-15.40077,19.08873-30.8118,28.18363-46.37343L68.49576,221.90933C75.06894,235.7046,81.833,249.44006,88.6971,262.97438Z" transform="translate(-12.88517 -4.51613)"/><path class="cls-2" d="M72.08751,229.40352c39.9477,0.38953,133.8821-3.12652,153.90681-3.03978,6.68121,0.02918,21.18306-.46287,38.74993-1.0795q6.87558-11.48375,13.4602-23.06686l-147.0537-.47627-70.34868,3.8157Q66.34347,217.49238,72.08751,229.40352Z" transform="translate(-12.88517 -4.51613)"/><path class="cls-3" d="M59.08071,201.83021c32.31631-3.05792,70.00409-6.30351,99.00385-3.54523,29.57144,2.81893,79.36946,2.6739,121.2601,1.909q-1.88774,3.35677-3.80939,6.708c-68.14474,1.46824-115.75616,1.2671-136.642.51885-14.63827-.52595-46.22677.28151-76.60251,1.33419Z" transform="translate(-12.88517 -4.51613)"/><path class="cls-4" d="M134.81821,348.51093c18.62586-1.66307,35.3766-2.655,52.203-2.32459l5.49921,0.0828c6.03935-11.46443,12.43669-22.79245,19.04772-34.0424l-94.7521,4.12638C122.85779,327.40594,128.87979,338.15754,134.81821,348.51093Z" transform="translate(-12.88517 -4.51613)"/><path class="cls-3" d="M198.53062,335.102c-23.0022.99512-46.29537,2.0139-69.609,3.04688q4.82225,8.54205,9.57591,16.75468c13.87812,23.96815,30.76054,34.08735,48.9535,1.19147Q192.78184,345.52083,198.53062,335.102Z" transform="translate(-12.88517 -4.51613)"/><path class="cls-2" d="M121.23026,324.38666c24.27646-.69312,54.06318-1.00853,84.00365-1.23168,6.19627-10.84307,12.62909-21.59467,19.16916-32.30291-38.75151,1.75448-78.78674,3.41039-118.725,4.83921Q113.45615,310.33545,121.23026,324.38666Z" transform="translate(-12.88517 -4.51613)"/><path class="cls-1" d="M135.8914,350.38448c17.376-1.06852,36.26843-1.95871,55.87758-2.68731q-2.1929,4.18473-4.318,8.39784c-18.193,32.89588-35.07538,22.77668-48.9535-1.19147Z" transform="translate(-12.88517 -4.51613)"/><path class="cls-3" d="M170.83194,65.78912c-0.66158-1.56208-1.37441-3.16516-2.15032-4.80767a36.12745,36.12745,0,0,0-4.14215,6.18444l4.21627,2.0005a31.62469,31.62469,0,0,1,2.0762-3.37727h0Zm-13.80242-24.379q-1.41107-1.89484-2.93727-3.76444a35.981,35.981,0,0,0-3.576,5.70659q2.10892,0.9486,4.21075,1.898a30.18572,30.18572,0,0,1,2.30251-3.84014h0ZM137.36673,21.71978c-1.21828-.8871-2.46573-1.74975-3.75577-2.58559a35.81516,35.81516,0,0,0-2.99484,5.12465c1.40595,0.59692,2.80559,1.1962,4.20917,1.79548a30.13921,30.13921,0,0,1,2.54143-4.33455h0ZM112.72991,9.16717q-2.25914-.77118-4.49935-1.41462a34.88555,34.88555,0,0,0-2.47441,4.55534q2.10183,0.841,4.20681,1.68982a29.30506,29.30506,0,0,1,2.767-4.83053h0ZM85.82528,4.518c-1.85068,0-3.67691.0757-5.48344,0.20975A35.08539,35.08539,0,0,0,78.47539,8.463q2.10537,0.79129,4.20207,1.58731A28.49143,28.49143,0,0,1,85.82528,4.518h0ZM60.12946,9.3233a67.92861,67.92861,0,0,0-7.5486,3.52315c-0.56774,1.182-.87842,2.00287-0.87842,2.00287q2.10183,0.74753,4.19971,1.488a24.385,24.385,0,0,1,4.22731-7.014h0ZM38.06955,23.36307a73.409,73.409,0,0,0-7.54386,8.27247l3.24165,1.06609c0.00394-.01341,2.29778-6.35,5.4582-8.21411l-1.156-1.12444h0ZM20.78025,47.8295c-0.6253,1.39024-1.22459,2.79856-1.78129,4.23526a34.64617,34.64617,0,0,0,4.87075,3.27082c0.64817-1.30824,1.30107-2.62028,1.95555-3.9253a27.512,27.512,0,0,1-5.045-3.58078h0ZM13.41144,75.60868c-0.168,1.63147-.30674,3.27-0.39111,4.93068a33.96478,33.96478,0,0,0,3.8977,1.99183c0.51412-1.35706,1.033-2.70939,1.5534-4.06645a27.94207,27.94207,0,0,1-5.06-2.85605h0Zm0.78222,26.61682c0.21842,1.417.47391,2.83871,0.753,4.27147a8.47775,8.47775,0,0,1,3.31734-.32882c-0.15455-1.46667-.36272-2.93018-0.61269-4.38974a12.62537,12.62537,0,0,0-3.4577.4471h0Zm7.3491,26.50012,1.59362,4.10824a8.99432,8.99432,0,0,1,3.3615-1.66064c-0.6324-1.32315-1.31369-2.62193-2.03125-3.90723a12.34017,12.34017,0,0,0-2.92387,1.45963h0Zm10.74451,26.769,1.82387,4.3653a9.8848,9.8848,0,0,1,3.326-2.9058c-0.91391-1.13778-1.86882-2.24173-2.84738-3.32359a12.08481,12.08481,0,0,0-2.30251,1.86408h0Zm10.72479,25.03424,1.76315,3.99a9.75269,9.75269,0,0,1,3.796-2.09039q-0.96989-1.947-2.07226-3.82831a13.193,13.193,0,0,0-3.48688,1.92874h0Zm11.62766,25.73367,1.85935,3.99863a8.57816,8.57816,0,0,1,2.88129-1.93347c-0.80272-1.20251-1.6496-2.37347-2.528-3.52473a11.49024,11.49024,0,0,0-2.21261,1.45957h0Zm12.17253,25.714,1.83727,3.78652a8.018,8.018,0,0,1,2.90337-1.0038c-0.49362-1.35233-1.03928-2.68185-1.61806-4.00337a12.307,12.307,0,0,0-3.12258,1.22064h0ZM78.67647,256.059l1.98946,3.95132a9.31455,9.31455,0,0,1,3.22588-2.472c-0.83663-1.16466-1.71505-2.29778-2.62186-3.40881a11.94947,11.94947,0,0,0-2.59347,1.92953h0Zm12.3949,24.2875,2.09591,4.03175a9.056,9.056,0,0,1,2.78982-2.65971c-0.96358-1.05505-1.96659-2.07383-2.99484-3.069a11.29959,11.29959,0,0,0-1.89089,1.69692h0Zm13.06436,24.76141,2.01154,3.7463a8.68264,8.68264,0,0,1,3.03978-1.84674c-0.7286-1.22222-1.50215-2.42236-2.30882-3.59806a12.05872,12.05872,0,0,0-2.74251,1.69849h0Zm11.99433,22.06385,2.6195,4.732a9.82784,9.82784,0,0,1,1.94451-4.0081c-1.24982-.68366-2.52093-1.32085-3.811-1.92638a9.55394,9.55394,0,0,0-.753,1.20251h0Zm13.16924,23.52105,2.59742,4.56164a8.85122,8.85122,0,0,1,1.65907-3.37018c-1.26322-.65054-2.54853-1.25613-3.8496-1.8286-0.14272.20108-.27677,0.41792-0.40688,0.63713h0ZM143.332,374.12c1.02588,1.42172,2.06595,2.76459,3.121,4.012a10.03145,10.03145,0,0,1,1.77183-4.22494c-1.27821-.62136-2.57692-1.193-3.89376-1.73167A10.48809,10.48809,0,0,0,143.332,374.12h0Zm21.105,14.9111a15.26924,15.26924,0,0,0,4.24939-.55434,11.16385,11.16385,0,0,1,1.801-5.06788c-1.294-.58509-2.60609-1.126-3.93555-1.63383a18.22056,18.22056,0,0,0-2.11484,7.25605h0Zm24.1156-20.0571c0.41319-.70568.82244-1.4256,1.23641-2.17234q1.14968-2.28279,2.32222-4.55534-2.019-.10054-4.04121-0.0828a17.15,17.15,0,0,0,.48258,6.81047h0Zm12.45483-23.46264,2.17-3.93634a7.03114,7.03114,0,0,1-1.05032-2.07147c-1.227.7152-2.43183,1.47692-3.61462,2.2686a13.77392,13.77392,0,0,0,2.49491,3.73921h0Zm14.49948-25.46563,2.45864-4.16417a6.62523,6.62523,0,0,1-.54093-1.909c-1.33419.49829-2.651,1.04638-3.95605,1.62516a14.32076,14.32076,0,0,0,2.03835,4.448h0Zm14.24242-23.7,2.79218-4.55534a6.89259,6.89259,0,0,1-.19871-2.15038c-1.413.23031-2.8119,0.51024-4.20681,0.832a16.04137,16.04137,0,0,0,1.61333,5.87376h0Zm14.8488-24.04621,2.472-3.97892a8.245,8.245,0,0,1-1.03061-3.091c-1.35864.46523-2.69519,0.98093-4.02071,1.529a16.11454,16.11454,0,0,0,2.57928,5.541h0ZM259.31049,248.553l2.63684-4.292a8.09089,8.09089,0,0,1-.60323-3.06423q-2.10892.44946-4.18867,1.033a16.8971,16.8971,0,0,0,2.15505,6.32322h0ZM273.687,224.86159l2.57928-4.35584a8.12952,8.12952,0,0,1-.63713-2.98222c-1.40595.32875-2.80007,0.71125-4.1863,1.12917a16.86015,16.86015,0,0,0,2.24416,6.20888h0Zm14.27633-24.64944,2.32459-4.18a9.21764,9.21764,0,0,1-1.35706-3.70136c-1.372.46523-2.7291,0.98566-4.07433,1.53527a17.59969,17.59969,0,0,0,3.10681,6.34609h0Zm13.50751-24.252,2.36007-4.32035a9.10136,9.10136,0,0,1-1.17333-3.66351c-1.39964.42029-2.78036,0.89183-4.15319,1.39885a17.90657,17.90657,0,0,0,2.96645,6.585h0Zm12.87906-24.56743q1.12365-2.27934,2.23706-4.59713a8.959,8.959,0,0,1-1.10394-3.55469c-1.40358.42029-2.79613,0.89025-4.1729,1.39254a18.21135,18.21135,0,0,0,3.03978,6.75928h0ZM325.67552,126.222l1.31684-3.34337c0.2476-.64423.4534-1.26953,0.69075-1.9114a8.42681,8.42681,0,0,1-.83426-3.22982c-1.43039.38244-2.84107,0.81849-4.24229,1.2853a18.93289,18.93289,0,0,0,3.069,7.19928h0Zm8.06272-27.10571q0.3986-2.24021.69075-4.43469a10.20819,10.20819,0,0,1-3.751-2.68889c-0.92337,1.171-1.80179,2.36717-2.651,3.59175a17.26955,17.26955,0,0,0,5.71132,3.53182h0ZM334.634,71.9988q-0.35839-2.85645-.91154-5.59225c-1.2924,1.70717-3.132,3.73047-4.989,4.41649,0.85634,1.23175,1.75684,2.42716,2.68889,3.60522A13.52389,13.52389,0,0,0,334.634,71.9988h0Zm-9.00974-26.87395c-0.91-1.53763-1.898-3.01291-2.91677-4.4567a33.63815,33.63815,0,0,0-2.38767,7.08336c1.45089,0.2476,2.90573.49835,4.35426,0.75068a29.23389,29.23389,0,0,1,.95018-3.37734h0ZM306.71848,24.55848c-1.27584-.92495-2.588-1.80337-3.92451-2.64631a34.871,34.871,0,0,0-1.07082,6.70086q2.22957,0.0344,4.45283.07419a30.25468,30.25468,0,0,1,.54251-4.12874h0ZM281.66689,12.55312c-1.45563-.41319-2.91914-0.79563-4.39921-1.13548a34.48579,34.48579,0,0,0,.02444,6.33735q2.22365-.30861,4.4481-0.61262a29.60425,29.60425,0,0,1-.07333-4.58924h0Zm-27.511-3.26294c-1.52186.05835-3.04451,0.14982-4.56243,0.28624a35.45647,35.45647,0,0,0,1.90509,6.0843q2.05451-.9629,4.10587-1.91849a30.47583,30.47583,0,0,1-1.44853-4.452h0Zm-27.15144,5.4787q-2.15505.82431-4.262,1.77176a19.21385,19.21385,0,0,0,1.84358,5.23512l2.62423-1.29161,1.48244-.7286a29.76836,29.76836,0,0,1-1.68824-4.98666h0ZM203.61585,28.88114c-1.30107,1.16236-2.5572,2.394-3.78652,3.662a35.84927,35.84927,0,0,0,1.70086,4.38265q2.05215-1.0657,4.09957-2.12509a29.55554,29.55554,0,0,1-2.0139-5.91956h0ZM187.37056,49.95308q-1.62043,3.14742-3.00193,6.55347c0.68839,1.80179,1.31211,3.03262,1.31842,3.03978l4.0972-2.22838A27.31689,27.31689,0,0,1,187.37056,49.95308Z" transform="translate(-12.88517 -4.51613)"/></svg>